    <svg xmlns="http://www.w3.org/2000/svg" viewBox="0 0 118.72 129.58"><defs><style>.cls-1{fill:#07314a;}.cls-2{fill:#063b59;}.cls-3{fill:#054669;}.cls-4{fill:#045078;}.cls-5{fill:#025a87;}.cls-6{fill:#016597;}.cls-7{fill:#006fa6;}</style></defs><g id="Layer_2" data-name="Layer 2"><g id="Layer_4" data-name="Layer 4"><path class="cls-1" d="M55.36.23.94,30.71A1.82,1.82,0,0,0,0,32.31V58.56a1.83,1.83,0,0,0,.92,1.59L56.3,92a1.83,1.83,0,0,0,1.8,0l12.75-7a1.84,1.84,0,0,0,.06-3.19L18.26,50.58a1.8,1.8,0,0,1-.67-.7c-2.35-4.44-1.82-8.12,2.12-10.9l.16-.1,33.22-19,.11-.07c2.44-1.71,5-1.66,7.7,0l51.23,29.88a1.84,1.84,0,0,0,1.92,0h0a1.84,1.84,0,0,0,.83-1.54V37.52A8.61,8.61,0,0,0,110.46,30L57.15.23A1.84,1.84,0,0,0,55.36.23Z"/><path class="cls-1" d="M59.52,129.34,114,98.87a1.86,1.86,0,0,0,.93-1.6V71a1.86,1.86,0,0,0-.91-1.59L58.58,37.53a1.86,1.86,0,0,0-1.8,0L44,44.5A1.83,1.83,0,0,0,44,47.68L96.62,79a1.93,1.93,0,0,1,.68.71c2.35,4.44,1.82,8.12-2.13,10.89a.91.91,0,0,1-.16.11l-33.21,19a.41.41,0,0,0-.11.07c-2.45,1.7-5,1.65-7.71,0L2.76,79.86a1.82,1.82,0,0,0-1.92,0h0A1.85,1.85,0,0,0,0,81.44V92.06a8.61,8.61,0,0,0,4.42,7.52l53.32,29.76A1.82,1.82,0,0,0,59.52,129.34Z"/><path class="cls-2" d="M56,.23,1.58,30.71a1.82,1.82,0,0,0-.94,1.6V58.56a1.83,1.83,0,0,0,.92,1.59L56.94,92a1.83,1.83,0,0,0,1.8,0l12.75-7a1.84,1.84,0,0,0,.05-3.19L18.9,50.58a1.8,1.8,0,0,1-.67-.7c-2.35-4.44-1.82-8.12,2.12-10.9l.16-.1,33.22-19,.11-.07c2.44-1.71,5-1.66,7.7,0l51.23,29.88a1.84,1.84,0,0,0,1.92,0h0a1.84,1.84,0,0,0,.83-1.54V37.52A8.61,8.61,0,0,0,111.1,30L57.79.23A1.84,1.84,0,0,0,56,.23Z"/><path class="cls-2" d="M60.16,129.34l54.43-30.47a1.86,1.86,0,0,0,.93-1.6V71a1.84,1.84,0,0,0-.92-1.59L59.22,37.53a1.86,1.86,0,0,0-1.8,0l-12.75,7a1.83,1.83,0,0,0-.05,3.18L97.26,79a1.93,1.93,0,0,1,.68.71c2.35,4.44,1.82,8.12-2.13,10.89l-.16.11-33.21,19a.41.41,0,0,0-.11.07c-2.45,1.7-5,1.65-7.71,0L3.4,79.86a1.82,1.82,0,0,0-1.92,0h0a1.82,1.82,0,0,0-.84,1.54V92.06a8.61,8.61,0,0,0,4.42,7.52l53.31,29.76A1.84,1.84,0,0,0,60.16,129.34Z"/><path class="cls-3" d="M56.64.23,2.22,30.71a1.82,1.82,0,0,0-.94,1.6V58.56a1.83,1.83,0,0,0,.92,1.59L57.58,92a1.83,1.83,0,0,0,1.8,0l12.75-7a1.84,1.84,0,0,0,.05-3.19L19.54,50.58a1.8,1.8,0,0,1-.67-.7C16.51,45.44,17.05,41.76,21,39l.16-.1,33.22-19,.1-.07c2.45-1.71,5-1.66,7.71,0l51.23,29.88a1.82,1.82,0,0,0,1.91,0h0a1.82,1.82,0,0,0,.84-1.54V37.52A8.61,8.61,0,0,0,111.74,30L58.43.23A1.84,1.84,0,0,0,56.64.23Z"/><path class="cls-3" d="M60.8,129.34l54.42-30.47a1.85,1.85,0,0,0,.94-1.6V71a1.84,1.84,0,0,0-.92-1.59L59.86,37.53a1.86,1.86,0,0,0-1.8,0l-12.75,7a1.83,1.83,0,0,0-.05,3.18L97.9,79a1.83,1.83,0,0,1,.67.71c2.36,4.44,1.82,8.12-2.12,10.89l-.16.11-33.22,19-.1.07c-2.45,1.7-5,1.65-7.71,0L4,79.86a1.8,1.8,0,0,0-1.91,0h0a1.82,1.82,0,0,0-.84,1.54V92.06A8.61,8.61,0,0,0,5.7,99.58L59,129.34A1.84,1.84,0,0,0,60.8,129.34Z"/><path class="cls-4" d="M57.28.23,2.85,30.71a1.83,1.83,0,0,0-.93,1.6V58.56a1.83,1.83,0,0,0,.92,1.59L58.22,92a1.83,1.83,0,0,0,1.8,0l12.75-7a1.84,1.84,0,0,0,0-3.19L20.18,50.58a1.9,1.9,0,0,1-.68-.7c-2.35-4.44-1.82-8.12,2.13-10.9l.16-.1L55,19.87l.11-.07c2.45-1.71,5-1.66,7.71,0L114,49.72a1.84,1.84,0,0,0,1.92,0h0a1.82,1.82,0,0,0,.84-1.54V37.52A8.61,8.61,0,0,0,112.38,30L59.07.23A1.84,1.84,0,0,0,57.28.23Z"/><path class="cls-4" d="M61.44,129.34l54.42-30.47a1.85,1.85,0,0,0,.94-1.6V71a1.84,1.84,0,0,0-.92-1.59L60.5,37.53a1.86,1.86,0,0,0-1.8,0L46,44.5a1.83,1.83,0,0,0-.05,3.18L98.54,79a1.83,1.83,0,0,1,.67.71c2.35,4.44,1.82,8.12-2.12,10.89l-.16.11-33.22,19-.11.07c-2.44,1.7-5,1.65-7.7,0L4.67,79.86a1.82,1.82,0,0,0-1.92,0h0a1.84,1.84,0,0,0-.83,1.54V92.06a8.61,8.61,0,0,0,4.42,7.52l53.31,29.76A1.84,1.84,0,0,0,61.44,129.34Z"/><path class="cls-5" d="M57.92.23,3.49,30.71a1.83,1.83,0,0,0-.93,1.6V58.56a1.84,1.84,0,0,0,.91,1.59L58.86,92a1.83,1.83,0,0,0,1.8,0l12.75-7a1.84,1.84,0,0,0,0-3.19L20.82,50.58a1.9,1.9,0,0,1-.68-.7c-2.35-4.44-1.82-8.12,2.13-10.9l.16-.1,33.21-19,.11-.07c2.45-1.71,5-1.66,7.71,0l51.22,29.88a1.84,1.84,0,0,0,1.92,0h0a1.85,1.85,0,0,0,.84-1.54V37.52A8.61,8.61,0,0,0,113,30L59.7.23A1.82,1.82,0,0,0,57.92.23Z"/><path class="cls-5" d="M62.08,129.34,116.5,98.87a1.85,1.85,0,0,0,.94-1.6V71a1.84,1.84,0,0,0-.92-1.59L61.14,37.53a1.86,1.86,0,0,0-1.8,0l-12.75,7a1.84,1.84,0,0,0-.06,3.18L99.18,79a1.83,1.83,0,0,1,.67.71c2.35,4.44,1.82,8.12-2.12,10.89l-.16.11-33.22,19-.11.07c-2.44,1.7-5,1.65-7.7,0L5.31,79.86a1.82,1.82,0,0,0-1.92,0h0a1.84,1.84,0,0,0-.83,1.54V92.06A8.61,8.61,0,0,0,7,99.58l53.31,29.76A1.84,1.84,0,0,0,62.08,129.34Z"/><path class="cls-6" d="M58.55.23,4.13,30.71a1.81,1.81,0,0,0-.93,1.6V58.56a1.84,1.84,0,0,0,.91,1.59L59.5,92a1.83,1.83,0,0,0,1.8,0l12.74-7a1.84,1.84,0,0,0,.06-3.19L21.46,50.58a1.9,1.9,0,0,1-.68-.7C18.43,45.44,19,41.76,22.9,39l.17-.1,33.21-19,.11-.07c2.45-1.71,5-1.66,7.71,0l51.22,29.88a1.84,1.84,0,0,0,1.92,0h0a1.85,1.85,0,0,0,.84-1.54V37.52A8.61,8.61,0,0,0,113.66,30L60.34.23A1.84,1.84,0,0,0,58.55.23Z"/><path class="cls-6" d="M62.72,129.34l54.42-30.47a1.85,1.85,0,0,0,.94-1.6V71a1.84,1.84,0,0,0-.92-1.59L61.77,37.53a1.84,1.84,0,0,0-1.79,0l-12.75,7a1.83,1.83,0,0,0-.06,3.18L99.82,79a1.83,1.83,0,0,1,.67.71c2.35,4.44,1.82,8.12-2.12,10.89l-.16.11L65,109.71l-.11.07c-2.44,1.7-5,1.65-7.7,0L6,79.86A1.82,1.82,0,0,0,4,79.9H4a1.84,1.84,0,0,0-.83,1.54V92.06a8.61,8.61,0,0,0,4.42,7.52l53.31,29.76A1.84,1.84,0,0,0,62.72,129.34Z"/><path class="cls-7" d="M59.19.23,4.77,30.71a1.81,1.81,0,0,0-.93,1.6V58.56a1.84,1.84,0,0,0,.91,1.59L60.14,92a1.81,1.81,0,0,0,1.79,0l12.75-7a1.84,1.84,0,0,0,.06-3.19L22.1,50.58a1.9,1.9,0,0,1-.68-.7c-2.35-4.44-1.82-8.12,2.12-10.9l.17-.1,33.21-19L57,19.8c2.45-1.71,5-1.66,7.71,0L116,49.72a1.84,1.84,0,0,0,1.92,0h0a1.85,1.85,0,0,0,.84-1.54V37.52A8.61,8.61,0,0,0,114.3,30L61,.23A1.84,1.84,0,0,0,59.19.23Z"/><path class="cls-7" d="M63.36,129.34l54.42-30.47a1.85,1.85,0,0,0,.94-1.6V71a1.84,1.84,0,0,0-.92-1.59L62.41,37.53a1.84,1.84,0,0,0-1.79,0l-12.75,7a1.83,1.83,0,0,0-.06,3.18L100.45,79a1.78,1.78,0,0,1,.68.71c2.35,4.44,1.82,8.12-2.12,10.89l-.17.11-33.21,19-.11.07c-2.44,1.7-5,1.65-7.7,0L6.59,79.86a1.82,1.82,0,0,0-1.92,0h0a1.84,1.84,0,0,0-.83,1.54V92.06a8.62,8.62,0,0,0,4.41,7.52l53.32,29.76A1.84,1.84,0,0,0,63.36,129.34Z"/></g></g></svg>